<?xml version="1.0" encoding="UTF-8"?>
<!-- Generator: Adobe Illustrator 20.1.0, SVG Export Plug-In . SVG Version: 6.00 Build 0)  -->
<svg version="1.1" id="Layer_1" xmlns="http://www.w3.org/2000/svg" xmlns:xlink="http://www.w3.org/1999/xlink" x="0px" y="0px" viewBox="0 0 186.7 71.7" style="enable-background:new 0 0 186.7 71.7;" xml:space="preserve">
<g>
	<g>
		<path d="M0.5,5.7C0.5,2.2,3.1,0,6.1,0s4.6,1.9,5,3.6l-2,0.6c-0.3-1-1.1-2.1-3-2.1c-1.6,0-3.4,1.2-3.4,3.7c0,2.3,1.6,3.6,3.4,3.6    c1.9,0,2.8-1.2,3.1-2.3l2,0.6c-0.4,1.7-2,3.7-5.1,3.7C3,11.5,0.5,9.3,0.5,5.7"/>
		<path d="M17.9,7.4C17.9,6,17,5.2,16,5.2S14,6,14,7.4c0,1.5,1,2.2,2,2.2S17.9,8.9,17.9,7.4 M20,7.4c0,2.3-1.7,4.1-4,4.1    s-4-1.7-4-4.1s1.7-4.1,4-4.1S20,5.1,20,7.4"/>
		<path d="M23.4,11.2h-2.1V3.6h2v0.9c0.5-0.8,1.4-1.2,2.2-1.2c1.9,0,2.8,1.4,2.8,3v4.8h-2.1V6.8c0-0.9-0.4-1.5-1.4-1.5    c-0.9,0-1.4,0.7-1.4,1.6V11.2z"/>
		<path d="M32.8,3.6h1.5v1.8h-1.5v3.2c0,0.7,0.3,0.9,0.9,0.9c0.2,0,0.5,0,0.6-0.1v1.7c-0.2,0.1-0.6,0.2-1.2,0.2    c-1.5,0-2.4-0.9-2.4-2.4V5.4h-1.4V3.6h0.4c0.8,0,1.2-0.5,1.2-1.2V1.3h1.9V3.6z"/>
		<path d="M40.7,6.6C40.7,5.8,40.2,5,39,5c-1.1,0-1.7,0.8-1.7,1.5L40.7,6.6L40.7,6.6z M42.7,9.1c-0.4,1.3-1.6,2.4-3.5,2.4    c-2.1,0-3.9-1.5-3.9-4.1c0-2.4,1.8-4,3.8-4c2.4,0,3.8,1.5,3.8,4c0,0.3,0,0.6,0,0.6h-5.5c0,1,0.9,1.7,1.9,1.7s1.5-0.5,1.7-1.2    L42.7,9.1z"/>
		<path d="M44.2,11.2V3.6h2v0.9c0.4-0.7,1.4-1.2,2.2-1.2c1,0,1.9,0.5,2.3,1.3c0.6-0.9,1.4-1.3,2.4-1.3c1.4,0,2.8,0.9,2.8,2.9v5h-2    V6.7c0-0.8-0.4-1.4-1.4-1.4c-0.9,0-1.4,0.7-1.4,1.5v4.5H49V6.7c0-0.8-0.4-1.4-1.4-1.4c-0.9,0-1.4,0.7-1.4,1.5v4.5L44.2,11.2    L44.2,11.2z"/>
		<path d="M61.6,5.3c-1.1,0-1.9,0.8-1.9,2.1c0,1.4,0.9,2.2,1.9,2.2s1.9-0.8,1.9-2.2C63.5,6.1,62.6,5.3,61.6,5.3 M57.6,14.2V3.6h2    v0.9C60,3.9,60.8,3.4,62,3.4c2.2,0,3.5,1.7,3.5,4s-1.4,4-3.6,4c-1.1,0-1.8-0.4-2.2-0.9v3.7H57.6L57.6,14.2z"/>
		<path d="M72.3,7.4c0-1.4-0.9-2.2-1.9-2.2s-1.9,0.7-1.9,2.2c0,1.4,0.9,2.2,1.9,2.2C71.4,9.6,72.3,8.9,72.3,7.4 M74.4,7.4    c0,2.3-1.7,4.1-4,4.1s-4-1.7-4-4.1s1.7-4.1,4-4.1C72.7,3.4,74.4,5.1,74.4,7.4"/>
		<path d="M80.3,5.7c-0.2,0-0.4-0.1-0.6-0.1c-1.1,0-2,0.5-2,2.2v3.5h-2.1V3.6h2v1.1c0.5-1,1.5-1.2,2.2-1.2c0.2,0,0.3,0,0.5,0V5.7z"/>
		<path d="M84.8,9.7c1.1,0,1.9-0.9,1.9-2.3s-0.8-2.2-1.9-2.2S82.9,6,82.9,7.4S83.6,9.7,84.8,9.7 M86.7,10.2    c-0.3,0.7-1.1,1.3-2.1,1.3c-2.3,0-3.7-1.8-3.7-4.1c0-2.2,1.5-4,3.7-4c1.4,0,2,0.7,2.2,1.2v-1h2v6.3c0,0.7,0,1.2,0.1,1.4h-2    C86.7,11.1,86.7,10.7,86.7,10.2C86.7,10.3,86.7,10.2,86.7,10.2z"/>
		<path d="M94.8,5.7c-0.2,0-0.4-0.1-0.6-0.1c-1.1,0-2,0.5-2,2.2v3.5h-2.1V3.6h2v1.1c0.5-1,1.5-1.2,2.2-1.2c0.2,0,0.3,0,0.5,0V5.7    L94.8,5.7z"/>
	</g>
	<polygon points="97,14.3 98.8,10.3 95.6,3.6 97.9,3.6 99.9,8.1 101.8,3.6 104,3.6 99.2,14.3  "/>
	<path d="M3.9,22.9h3l-1.5-4.2L3.9,22.9z M7.7,24.8H3.2l-0.9,2.5H0l4.2-11h2.5l4.2,11H8.6L7.7,24.8z"/>
	<g>
		<path d="M16.5,21.8c-0.2,0-0.4-0.1-0.6-0.1c-1.1,0-2,0.5-2,2.2v3.5h-2.1v-7.6h2v1.1c0.5-1,1.5-1.2,2.2-1.2c0.2,0,0.3,0,0.5,0V21.8    z"/>
		<path d="M20.8,19.7h1.5v1.8h-1.5v3.2c0,0.7,0.3,0.9,0.9,0.9c0.2,0,0.5,0,0.6-0.1v1.7c-0.2,0.1-0.6,0.2-1.2,0.2    c-1.5,0-2.4-0.9-2.4-2.4v-3.6h-1.4v-1.8h0.4c0.8,0,1.2-0.5,1.2-1.2v-1.1h1.9V19.7z"/>
		<path d="M31.9,21.3c1.1,0,1.7-0.6,1.7-1.5s-0.6-1.5-1.7-1.5h-1.7v3.1L31.9,21.3L31.9,21.3z M31.3,23.1h-1.1v4.2H28v-11h4.3    c2.1,0,3.5,1.5,3.5,3.4c0,1.5-0.9,2.7-2.3,3.1l2.4,4.5h-2.4L31.3,23.1z"/>
		<path d="M41.9,22.7c0-0.8-0.5-1.5-1.7-1.5c-1.1,0-1.7,0.8-1.7,1.5H41.9z M43.8,25.2c-0.4,1.3-1.6,2.4-3.5,2.4    c-2.1,0-3.9-1.5-3.9-4.1c0-2.4,1.8-4,3.8-4c2.4,0,3.8,1.5,3.8,4c0,0.3,0,0.6,0,0.6h-5.5c0,1,0.9,1.7,1.9,1.7s1.5-0.5,1.7-1.2    L43.8,25.2z"/>
	</g>
	<polygon points="49.3,27.3 47.2,27.3 44.1,19.7 46.4,19.7 48.3,24.8 50.1,19.7 52.3,19.7  "/>
	<g>
		<path d="M53.4,19.7h2.1v7.6h-2.1V19.7z M54.4,15.9c0.7,0,1.3,0.6,1.3,1.3c0,0.7-0.6,1.3-1.3,1.3s-1.3-0.6-1.3-1.3    C53.1,16.5,53.7,15.9,54.4,15.9"/>
		<path d="M62.2,22.7c0-0.8-0.5-1.5-1.7-1.5c-1.1,0-1.7,0.8-1.7,1.5H62.2z M64.2,25.2c-0.4,1.3-1.6,2.4-3.5,2.4    c-2.1,0-3.9-1.5-3.9-4.1c0-2.4,1.8-4,3.8-4c2.4,0,3.8,1.5,3.8,4c0,0.3,0,0.6,0,0.6h-5.5c0,1,0.9,1.7,1.9,1.7s1.5-0.5,1.7-1.2    L64.2,25.2z"/>
	</g>
	<polygon points="72,19.7 73.6,24.6 75,19.7 77.1,19.7 74.7,27.3 72.6,27.3 70.8,22.1 69.1,27.3 67,27.3 64.6,19.7 66.7,19.7    68.1,24.6 69.8,19.7  "/>
	<rect x="118.4" y="0.4" width="12.8" height="69.9"/>
	<g>
		<path d="M162.1,60.6c6.7,0,11.7-5.5,11.7-14.2s-4.9-13.8-11.7-13.8c-6.9,0-11.9,5.1-11.9,13.8C150.2,55,155.2,60.6,162.1,60.6     M173.9,63.9c-2,4.5-7,7.8-13.3,7.8c-14,0-23.3-10.9-23.3-25.3c0-13.9,9.1-24.9,22.9-24.9c8.5,0,12.5,4.5,13.6,7.2v-5.9h12.5v38.9    c0,4.3,0.3,7.5,0.4,8.6h-12.3c-0.2-1.1-0.5-3.6-0.5-5.9L173.9,63.9L173.9,63.9z"/>
		<path d="M103.4,53.8c-4.7,0-8.4,3.7-8.6,8.3v0.7c0.2,4.6,3.9,8.2,8.6,8.2c4.8,0,8.6-3.8,8.6-8.6S108.2,53.8,103.4,53.8"/>
	</g>
</g>
</svg>